<svg width="14" height="14" viewBox="0 0 14 14" fill="none" xmlns="http://www.w3.org/2000/svg">
<path d="M11.375 5.25C11.6071 5.25 11.8296 5.15781 11.9937 4.99372C12.1578 4.82962 12.25 4.60706 12.25 4.375V2.625C12.25 2.39294 12.1578 2.17038 11.9937 2.00628C11.8296 1.84219 11.6071 1.75 11.375 1.75H9.625C9.39294 1.75 9.17038 1.84219 9.00628 2.00628C8.84219 2.17038 8.75 2.39294 8.75 2.625V3.0625H5.25V2.625C5.25 2.39294 5.15781 2.17038 4.99372 2.00628C4.82962 1.84219 4.60706 1.75 4.375 1.75H2.625C2.39294 1.75 2.17038 1.84219 2.00628 2.00628C1.84219 2.17038 1.75 2.39294 1.75 2.625V4.375C1.75 4.60706 1.84219 4.82962 2.00628 4.99372C2.17038 5.15781 2.39294 5.25 2.625 5.25H3.0625V8.75H2.625C2.39294 8.75 2.17038 8.84219 2.00628 9.00628C1.84219 9.17038 1.75 9.39294 1.75 9.625V11.375C1.75 11.6071 1.84219 11.8296 2.00628 11.9937C2.17038 12.1578 2.39294 12.25 2.625 12.25H4.375C4.60706 12.25 4.82962 12.1578 4.99372 11.9937C5.15781 11.8296 5.25 11.6071 5.25 11.375V10.9375H8.75V11.375C8.75 11.6071 8.84219 11.8296 9.00628 11.9937C9.17038 12.1578 9.39294 12.25 9.625 12.25H11.375C11.6071 12.25 11.8296 12.1578 11.9937 11.9937C12.1578 11.8296 12.25 11.6071 12.25 11.375V9.625C12.25 9.39294 12.1578 9.17038 11.9937 9.00628C11.8296 8.84219 11.6071 8.75 11.375 8.75H10.9375V5.25H11.375ZM9.625 2.625H11.375V4.375H9.625V2.625ZM2.625 2.625H4.375V3.49453C4.37428 3.49814 4.37428 3.50186 4.375 3.50547V4.375H2.625V2.625ZM4.375 11.375H2.625V9.625H4.375V10.4945C4.37428 10.4981 4.37428 10.5019 4.375 10.5055V11.375ZM11.375 11.375H9.625V9.625H11.375V11.375ZM10.0625 8.75H9.625C9.39294 8.75 9.17038 8.84219 9.00628 9.00628C8.84219 9.17038 8.75 9.39294 8.75 9.625V10.0625H5.25V9.625C5.25 9.39294 5.15781 9.17038 4.99372 9.00628C4.82962 8.84219 4.60706 8.75 4.375 8.75H3.9375V5.25H4.375C4.60706 5.25 4.82962 5.15781 4.99372 4.99372C5.15781 4.82962 5.25 4.60706 5.25 4.375V3.9375H8.75V4.375C8.75 4.60706 8.84219 4.82962 9.00628 4.99372C9.17038 5.15781 9.39294 5.25 9.625 5.25H10.0625V8.75Z" fill="white"/>
</svg>
