<svg width="24" height="24" viewBox="0 0 24 24" fill="none" xmlns="http://www.w3.org/2000/svg">
<path d="M8.65 20.4996L2.5 14.3496C2.33333 14.1829 2.20833 13.9996 2.125 13.7996C2.04167 13.5996 2 13.3913 2 13.1746C2 12.9579 2.04167 12.7496 2.125 12.5496C2.20833 12.3496 2.33333 12.1663 2.5 11.9996L8.25 6.27461L6.375 4.39961C6.15833 4.18294 6.04583 3.92461 6.0375 3.62461C6.02917 3.32461 6.13333 3.05794 6.35 2.82461C6.56667 2.59128 6.83333 2.47461 7.15 2.47461C7.46667 2.47461 7.74167 2.59128 7.975 2.82461L17.15 11.9996C17.3167 12.1663 17.4375 12.3496 17.5125 12.5496C17.5875 12.7496 17.625 12.9579 17.625 13.1746C17.625 13.3913 17.5875 13.5996 17.5125 13.7996C17.4375 13.9996 17.3167 14.1829 17.15 14.3496L11 20.4996C10.8333 20.6663 10.65 20.7913 10.45 20.8746C10.25 20.9579 10.0417 20.9996 9.825 20.9996C9.60833 20.9996 9.4 20.9579 9.2 20.8746C9 20.7913 8.81667 20.6663 8.65 20.4996ZM9.825 7.84961L4.475 13.1996H15.175L9.825 7.84961ZM19.8 20.9996C19.2 20.9996 18.6917 20.7871 18.275 20.3621C17.8583 19.9371 17.65 19.4163 17.65 18.7996C17.65 18.3496 17.7625 17.9246 17.9875 17.5246C18.2125 17.1246 18.4667 16.7329 18.75 16.3496L19.225 15.7496C19.375 15.5663 19.5708 15.4704 19.8125 15.4621C20.0542 15.4538 20.25 15.5413 20.4 15.7246L20.9 16.3496C21.1667 16.7329 21.4167 17.1246 21.65 17.5246C21.8833 17.9246 22 18.3496 22 18.7996C22 19.4163 21.7833 19.9371 21.35 20.3621C20.9167 20.7871 20.4 20.9996 19.8 20.9996Z" fill="white"/>
</svg>
