<svg width="24" height="24" viewBox="0 0 24 24" fill="none" xmlns="http://www.w3.org/2000/svg">
<path d="M5.45 16C4.75 16 4.12084 15.775 3.5625 15.325C3.00417 14.875 2.65 14.3 2.5 13.6L1.775 10.25H1.675C1.39167 10.2833 1.14584 10.2083 0.937504 10.025C0.729171 9.84167 0.608337 9.60833 0.575004 9.325C0.541671 9.04167 0.620837 8.8 0.812504 8.6C1.00417 8.4 1.24167 8.28333 1.525 8.25C2.55834 8.16667 3.45834 8.10417 4.225 8.0625C4.99167 8.02083 5.69167 8 6.325 8C7.40834 8 8.28334 8.05 8.95 8.15C9.61667 8.25 10.2167 8.425 10.75 8.675C10.9833 8.79167 11.2042 8.875 11.4125 8.925C11.6208 8.975 11.8167 9 12 9C12.1833 9 12.3625 8.975 12.5375 8.925C12.7125 8.875 12.9167 8.8 13.15 8.7C13.7 8.45 14.3333 8.27083 15.05 8.1625C15.7667 8.05417 16.7167 8 17.9 8C18.6667 8 19.475 8.02083 20.325 8.0625C21.175 8.10417 21.9 8.15833 22.5 8.225C22.7833 8.25833 23.0167 8.375 23.2 8.575C23.3833 8.775 23.4583 9.01667 23.425 9.3C23.3917 9.58333 23.275 9.81667 23.075 10C22.875 10.1833 22.6333 10.2583 22.35 10.225H22.25L21.5 13.625C21.35 14.325 21 14.8958 20.45 15.3375C19.9 15.7792 19.275 16 18.575 16H16.35C15.65 16 15.0333 15.7875 14.5 15.3625C13.9667 14.9375 13.6167 14.3917 13.45 13.725L12.775 11.05H11.25L10.575 13.725C10.3917 14.4083 10.0333 14.9583 9.5 15.375C8.96667 15.7917 8.35834 16 7.675 16H5.45ZM4.45 13.2C4.5 13.4333 4.61667 13.625 4.8 13.775C4.98334 13.925 5.19167 14 5.425 14H7.65C7.88334 14 8.09167 13.9292 8.275 13.7875C8.45834 13.6458 8.575 13.4667 8.625 13.25L9.4 10.225C8.95 10.1417 8.44167 10.0875 7.875 10.0625C7.30834 10.0375 6.79167 10.025 6.325 10.025C5.94167 10.025 5.52917 10.0292 5.0875 10.0375C4.64584 10.0458 4.23334 10.0667 3.85 10.1L4.45 13.2ZM15.375 13.25C15.425 13.4667 15.5417 13.6458 15.725 13.7875C15.9083 13.9292 16.1167 14 16.35 14H18.575C18.8083 14 19.0167 13.925 19.2 13.775C19.3833 13.625 19.5 13.4333 19.55 13.2L20.2 10.075C19.8667 10.0583 19.4833 10.0458 19.05 10.0375C18.6167 10.0292 18.2333 10.025 17.9 10.025C17.4 10.025 16.8458 10.0375 16.2375 10.0625C15.6292 10.0875 15.0833 10.1417 14.6 10.225L15.375 13.25Z" fill="white"/>
</svg>
