<svg width="24" height="24" viewBox="0 0 24 24" fill="none" xmlns="http://www.w3.org/2000/svg">
<path d="M5 19H3C2.71667 19 2.47917 18.9042 2.2875 18.7125C2.09583 18.5208 2 18.2833 2 18C2 17.7167 2.09583 17.4792 2.2875 17.2875C2.47917 17.0958 2.71667 17 3 17H5V13H3C2.71667 13 2.47917 12.9042 2.2875 12.7125C2.09583 12.5208 2 12.2833 2 12C2 11.7167 2.09583 11.4792 2.2875 11.2875C2.47917 11.0958 2.71667 11 3 11H5V7H3C2.71667 7 2.47917 6.90417 2.2875 6.7125C2.09583 6.52083 2 6.28333 2 6C2 5.71667 2.09583 5.47917 2.2875 5.2875C2.47917 5.09583 2.71667 5 3 5H5V3C5 2.71667 5.09583 2.47917 5.2875 2.2875C5.47917 2.09583 5.71667 2 6 2C6.28333 2 6.52083 2.09583 6.7125 2.2875C6.90417 2.47917 7 2.71667 7 3V5H11V3C11 2.71667 11.0958 2.47917 11.2875 2.2875C11.4792 2.09583 11.7167 2 12 2C12.2833 2 12.5208 2.09583 12.7125 2.2875C12.9042 2.47917 13 2.71667 13 3V5H17V3C17 2.71667 17.0958 2.47917 17.2875 2.2875C17.4792 2.09583 17.7167 2 18 2C18.2833 2 18.5208 2.09583 18.7125 2.2875C18.9042 2.47917 19 2.71667 19 3V5H21C21.2833 5 21.5208 5.09583 21.7125 5.2875C21.9042 5.47917 22 5.71667 22 6C22 6.28333 21.9042 6.52083 21.7125 6.7125C21.5208 6.90417 21.2833 7 21 7H19V11H21C21.2833 11 21.5208 11.0958 21.7125 11.2875C21.9042 11.4792 22 11.7167 22 12C22 12.2833 21.9042 12.5208 21.7125 12.7125C21.5208 12.9042 21.2833 13 21 13H19V17H21C21.2833 17 21.5208 17.0958 21.7125 17.2875C21.9042 17.4792 22 17.7167 22 18C22 18.2833 21.9042 18.5208 21.7125 18.7125C21.5208 18.9042 21.2833 19 21 19H19V21C19 21.2833 18.9042 21.5208 18.7125 21.7125C18.5208 21.9042 18.2833 22 18 22C17.7167 22 17.4792 21.9042 17.2875 21.7125C17.0958 21.5208 17 21.2833 17 21V19H13V21C13 21.2833 12.9042 21.5208 12.7125 21.7125C12.5208 21.9042 12.2833 22 12 22C11.7167 22 11.4792 21.9042 11.2875 21.7125C11.0958 21.5208 11 21.2833 11 21V19H7V21C7 21.2833 6.90417 21.5208 6.7125 21.7125C6.52083 21.9042 6.28333 22 6 22C5.71667 22 5.47917 21.9042 5.2875 21.7125C5.09583 21.5208 5 21.2833 5 21V19ZM7 17H11V13H7V17ZM13 17H17V13H13V17ZM7 11H11V7H7V11ZM13 11H17V7H13V11Z" fill="white"/>
</svg>
