<svg width="24" height="24" viewBox="0 0 24 24" fill="none" xmlns="http://www.w3.org/2000/svg">
<path d="M6 20C5.45 20 4.97917 19.8042 4.5875 19.4125C4.19583 19.0208 4 18.55 4 18V9C4 8.68333 4.07083 8.38333 4.2125 8.1C4.35417 7.81667 4.55 7.58333 4.8 7.4L10.8 2.9C11.15 2.63333 11.55 2.5 12 2.5C12.45 2.5 12.85 2.63333 13.2 2.9L19.2 7.4C19.45 7.58333 19.6458 7.81667 19.7875 8.1C19.9292 8.38333 20 8.68333 20 9V18C20 18.55 19.8042 19.0208 19.4125 19.4125C19.0208 19.8042 18.55 20 18 20H6ZM6 18H18V9L12 4.5L6 9V18Z" fill="white"/>
</svg>
