<svg width="24" height="24" viewBox="0 0 24 24" fill="none" xmlns="http://www.w3.org/2000/svg">
<path d="M11.1736 13.4691C10.8579 13.1534 10.7001 12.7708 10.7001 12.3213C10.7001 11.8717 10.8579 11.4892 11.1736 11.1735C11.4892 10.8579 11.8718 10.7001 12.3214 10.7001C12.7709 10.7001 13.1535 10.8579 13.4691 11.1735C13.7848 11.4892 13.9426 11.8717 13.9426 12.3213C13.9426 12.7708 13.7848 13.1534 13.4691 13.4691C13.1535 13.7847 12.7709 13.9425 12.3214 13.9425C11.8718 13.9425 11.4892 13.7847 11.1736 13.4691ZM5.09036 13.1247L6.00858 14.043C6.17118 14.2056 6.25248 14.3969 6.25248 14.6168C6.25248 14.8368 6.17118 15.0281 6.00858 15.1907C5.84598 15.3533 5.65468 15.4346 5.43469 15.4346C5.2147 15.4346 5.02341 15.3533 4.8608 15.1907L2.56525 12.8952C2.40265 12.7326 2.32135 12.5413 2.32135 12.3213C2.32135 12.1013 2.40265 11.91 2.56525 11.7474L4.8608 9.45185C5.02341 9.28925 5.2147 9.20795 5.43469 9.20795C5.65468 9.20795 5.84598 9.28925 6.00858 9.45185C6.17118 9.61445 6.25248 9.80575 6.25248 10.0257C6.25248 10.2457 6.17118 10.437 6.00858 10.5996L5.09036 11.5178L7.84502 11.5178C8.05545 11.5178 8.24196 11.5991 8.40456 11.7617C8.56717 11.9244 8.64847 12.1109 8.64847 12.3213C8.64847 12.5317 8.56717 12.7182 8.40456 12.8808C8.24196 13.0434 8.05545 13.1247 7.84502 13.1247H5.09036ZM11.5179 19.5523V16.7976C11.5179 16.5872 11.5992 16.4007 11.7618 16.2381C11.9244 16.0755 12.1109 15.9942 12.3214 15.9942C12.5318 15.9942 12.7183 16.0755 12.8809 16.2381C13.0435 16.4007 13.1248 16.5872 13.1248 16.7976L13.1248 19.5523L14.043 18.6341C14.2056 18.4715 14.3969 18.3902 14.6169 18.3902C14.8369 18.3902 15.0282 18.4715 15.1908 18.6341C15.3534 18.7967 15.4347 18.988 15.4347 19.2079C15.4347 19.4279 15.3534 19.6192 15.1908 19.7818L12.8952 22.0774C12.7326 22.24 12.5413 22.3213 12.3214 22.3213C12.1014 22.3213 11.9101 22.24 11.7475 22.0774L9.45191 19.7818C9.28931 19.6192 9.20801 19.4279 9.20801 19.2079C9.20801 18.988 9.28931 18.7967 9.45191 18.6341C9.61451 18.4715 9.80581 18.3902 10.0258 18.3902C10.2458 18.3902 10.4371 18.4715 10.5997 18.6341L11.5179 19.5523ZM11.5179 5.0903L10.5997 6.00852C10.4371 6.17112 10.2458 6.25242 10.0258 6.25242C9.80581 6.25242 9.61451 6.17112 9.45191 6.00852C9.28931 5.84592 9.20801 5.65462 9.20801 5.43463C9.20801 5.21464 9.28931 5.02335 9.45191 4.86074L11.7475 2.56519C11.9101 2.40259 12.1014 2.32129 12.3214 2.32129C12.5413 2.32129 12.7326 2.40259 12.8952 2.56519L15.1908 4.86074C15.3534 5.02335 15.4347 5.21464 15.4347 5.43463C15.4347 5.65462 15.3534 5.84592 15.1908 6.00852C15.0282 6.17112 14.8369 6.25242 14.6169 6.25242C14.3969 6.25242 14.2056 6.17112 14.043 6.00852L13.1248 5.0903V7.84496C13.1248 8.05539 13.0435 8.2419 12.8809 8.4045C12.7183 8.5671 12.5318 8.64841 12.3214 8.64841C12.1109 8.64841 11.9244 8.5671 11.7618 8.4045C11.5992 8.2419 11.5179 8.05539 11.5179 7.84496V5.0903ZM19.5523 13.1247H16.7977C16.5873 13.1247 16.4007 13.0434 16.2381 12.8808C16.0755 12.7182 15.9942 12.5317 15.9942 12.3213C15.9942 12.1109 16.0755 11.9244 16.2381 11.7617C16.4007 11.5991 16.5873 11.5178 16.7977 11.5178L19.5523 11.5178L18.6341 10.5996C18.4715 10.437 18.3902 10.2457 18.3902 10.0257C18.3902 9.80575 18.4715 9.61445 18.6341 9.45185C18.7967 9.28925 18.988 9.20795 19.208 9.20795C19.428 9.20795 19.6193 9.28925 19.7819 9.45185L22.0774 11.7474C22.24 11.91 22.3214 12.1013 22.3214 12.3213C22.3214 12.5413 22.24 12.7326 22.0774 12.8952L19.7819 15.1907C19.6193 15.3533 19.428 15.4346 19.208 15.4346C18.988 15.4346 18.7967 15.3533 18.6341 15.1907C18.4715 15.0281 18.3902 14.8368 18.3902 14.6168C18.3902 14.3969 18.4715 14.2056 18.6341 14.043L19.5523 13.1247Z" fill="white"/>
</svg>
