<svg width="24" height="24" viewBox="0 0 24 24" fill="none" xmlns="http://www.w3.org/2000/svg">
<path d="M6.00001 21.5C5.03334 21.5 4.20834 21.1583 3.52501 20.475C2.84168 19.7917 2.50001 18.9667 2.50001 18C2.50001 17.0333 2.84168 16.2083 3.52501 15.525C4.20834 14.8417 5.03334 14.5 6.00001 14.5C6.96668 14.5 7.79168 14.8417 8.47501 15.525C9.15834 16.2083 9.50001 17.0333 9.50001 18C9.50001 18.3667 9.44584 18.7208 9.33751 19.0625C9.22918 19.4042 9.06668 19.725 8.85001 20.025V19.35C9.35001 19.5667 9.86668 19.7292 10.4 19.8375C10.9333 19.9458 11.4667 20 12 20C14.05 20 15.8208 19.3333 17.3125 18C18.8042 16.6667 19.675 15.0083 19.925 13.025C19.9583 12.7417 20.075 12.5 20.275 12.3C20.475 12.1 20.7167 12 21 12C21.2833 12 21.5208 12.1 21.7125 12.3C21.9042 12.5 21.9833 12.7417 21.95 13.025C21.6833 15.5583 20.6083 17.6875 18.725 19.4125C16.8417 21.1375 14.6 22 12 22C11.25 22 10.5167 21.9208 9.80001 21.7625C9.08334 21.6042 8.39168 21.3667 7.72501 21.05C7.45834 21.2 7.17918 21.3125 6.88751 21.3875C6.59584 21.4625 6.30001 21.5 6.00001 21.5ZM6.00001 19.5C6.41668 19.5 6.77084 19.3542 7.06251 19.0625C7.35418 18.7708 7.50001 18.4167 7.50001 18C7.50001 17.5833 7.35418 17.2292 7.06251 16.9375C6.77084 16.6458 6.41668 16.5 6.00001 16.5C5.58334 16.5 5.22918 16.6458 4.93751 16.9375C4.64584 17.2292 4.50001 17.5833 4.50001 18C4.50001 18.4167 4.64584 18.7708 4.93751 19.0625C5.22918 19.3542 5.58334 19.5 6.00001 19.5ZM12 15.5C11.0333 15.5 10.2083 15.1583 9.52501 14.475C8.84168 13.7917 8.50001 12.9667 8.50001 12C8.50001 11.0333 8.84168 10.2083 9.52501 9.525C10.2083 8.84167 11.0333 8.5 12 8.5C12.9667 8.5 13.7917 8.84167 14.475 9.525C15.1583 10.2083 15.5 11.0333 15.5 12C15.5 12.9667 15.1583 13.7917 14.475 14.475C13.7917 15.1583 12.9667 15.5 12 15.5ZM12 4C9.95001 4 8.17918 4.66667 6.68751 6C5.19584 7.33333 4.32501 8.99167 4.07501 10.975C4.04168 11.2583 3.92501 11.5 3.72501 11.7C3.52501 11.9 3.28334 12 3.00001 12C2.71668 12 2.47918 11.9 2.28751 11.7C2.09584 11.5 2.01668 11.2583 2.05001 10.975C2.31668 8.44167 3.39168 6.3125 5.27501 4.5875C7.15834 2.8625 9.40001 2 12 2C12.75 2 13.4833 2.07917 14.2 2.2375C14.9167 2.39583 15.6083 2.63333 16.275 2.95C16.5417 2.8 16.8208 2.6875 17.1125 2.6125C17.4042 2.5375 17.7 2.5 18 2.5C18.9667 2.5 19.7917 2.84167 20.475 3.525C21.1583 4.20833 21.5 5.03333 21.5 6C21.5 6.96667 21.1583 7.79167 20.475 8.475C19.7917 9.15833 18.9667 9.5 18 9.5C17.0333 9.5 16.2083 9.15833 15.525 8.475C14.8417 7.79167 14.5 6.96667 14.5 6C14.5 5.63333 14.5542 5.27917 14.6625 4.9375C14.7708 4.59583 14.9333 4.275 15.15 3.975V4.65C14.65 4.43333 14.1333 4.27083 13.6 4.1625C13.0667 4.05417 12.5333 4 12 4ZM18 7.5C18.4167 7.5 18.7708 7.35417 19.0625 7.0625C19.3542 6.77083 19.5 6.41667 19.5 6C19.5 5.58333 19.3542 5.22917 19.0625 4.9375C18.7708 4.64583 18.4167 4.5 18 4.5C17.5833 4.5 17.2292 4.64583 16.9375 4.9375C16.6458 5.22917 16.5 5.58333 16.5 6C16.5 6.41667 16.6458 6.77083 16.9375 7.0625C17.2292 7.35417 17.5833 7.5 18 7.5Z" fill="white"/>
</svg>
