<svg width="24" height="24" viewBox="0 0 24 24" fill="none" xmlns="http://www.w3.org/2000/svg">
<path d="M8.84375 2.14844C9.11477 1.94239 9.38305 1.9507 9.64746 2.17383L20.0605 10.624C20.3118 10.8301 20.4375 11.1222 20.4375 11.5C20.4375 11.8778 20.3118 12.1699 20.0605 12.376L9.64746 20.8262C9.38303 21.0494 9.11479 21.0576 8.84375 20.8516C8.57291 20.6455 8.43754 20.345 8.4375 19.9502V16H10.0244V18.0947L18.1562 11.5L10.0244 4.90527V7H8.4375V3.0498C8.43758 2.65505 8.5729 2.35447 8.84375 2.14844Z" fill="white"/>
<path d="M8.5 6.875C11.0543 6.875 13.125 8.94568 13.125 11.5C13.125 14.0543 11.0543 16.125 8.5 16.125C5.94568 16.125 3.875 14.0543 3.875 11.5C3.875 8.94568 5.94568 6.875 8.5 6.875Z" stroke="white" stroke-width="1.75"/>
</svg>
